<svg xmlns="http://www.w3.org/2000/svg" version="1.1" xmlns:xlink="http://www.w3.org/1999/xlink" xmlns:svgjs="http://svgjs.dev/svgjs" width="1000" height="623" viewBox="0 0 1000 623"><g transform="matrix(1,0,0,1,-0.6060606060606233,0.2522267206477409)"><svg viewBox="0 0 396 247" data-background-color="#c9efc7" preserveAspectRatio="xMidYMid meet" height="623" width="1000" xmlns="http://www.w3.org/2000/svg" xmlns:xlink="http://www.w3.org/1999/xlink"><g id="tight-bounds" transform="matrix(1,0,0,1,0.2400000000000091,-0.09999999999999432)"><svg viewBox="0 0 395.52 247.2" height="247.2" width="395.52"><g><svg></svg></g><g><svg viewBox="0 0 395.52 247.2" height="247.2" width="395.52"><g transform="matrix(1,0,0,1,75.54432,52.275391798107265)"><svg viewBox="0 0 244.43135999999998 142.64921640378546" height="142.64921640378546" width="244.43135999999998"><g><svg viewBox="0 0 244.43135999999998 142.64921640378546" height="142.64921640378546" width="244.43135999999998"><g><svg viewBox="0 0 244.43135999999998 142.64921640378546" height="142.64921640378546" width="244.43135999999998"><g><svg viewBox="0 0 244.43135999999998 142.64921640378546" height="142.64921640378546" width="244.43135999999998"><g id="textblocktransform"><svg viewBox="0 0 244.43135999999998 142.64921640378546" height="142.64921640378546" width="244.43135999999998" id="textblock"><g><svg viewBox="0 0 244.43135999999998 142.64921640378546" height="142.64921640378546" width="244.43135999999998"><g transform="matrix(1,0,0,1,0,0)"><svg width="244.43135999999998" viewBox="3.049999952316284 -37 63.39999771118164 37" height="142.64921640378546" data-palette-color="#454545"><path d="M10.05 0L3.05 0 3.05-26.25 10.05-26.25 10.05-21.8 10.85-21.8Q11.15-22.85 11.68-23.75 12.2-24.65 12.93-25.35 13.65-26.05 14.65-26.45 15.65-26.85 16.95-26.85L16.95-26.85Q19.5-26.85 21-25.48 22.5-24.1 23.2-21.55L23.2-21.55 23.85-21.55Q24.7-24.3 26.53-25.58 28.35-26.85 30.75-26.85L30.75-26.85Q34.1-26.85 35.88-24.45 37.65-22.05 37.65-17.85L37.65-17.85 37.65 0 30.65 0 30.65-16.5Q30.65-21.15 27.6-21.15L27.6-21.15Q26.05-21.15 24.95-20.18 23.85-19.2 23.85-17.45L23.85-17.45 23.85 0 16.85 0 16.85-16.5Q16.85-21.15 13.8-21.15L13.8-21.15Q12.25-21.15 11.15-20.18 10.05-19.2 10.05-17.45L10.05-17.45 10.05 0ZM43.45 0L43.45-37 50.45-37 50.45-20.5 50.05-14.95 50.85-14.95 53.7-19.75 58.35-26.25 66.15-26.25 58.2-15.95 66.45 0 58.75 0 53.4-11.35 50.45-7.65 50.45 0 43.45 0Z" opacity="1" transform="matrix(1,0,0,1,0,0)" fill="#ffffff" class="undefined-text-0" data-fill-palette-color="primary" id="text-0"></path></svg></g></svg></g></svg></g></svg></g></svg></g></svg></g></svg></g><path d="M252.985 46.275L252.985 2.46 10.704 2.46 10.704 244.74 252.985 244.74 252.985 200.925 240.121 200.925 240.121 231.876 23.568 231.876 23.568 15.324 240.121 15.324 240.121 46.275Z" fill="#ffffff" stroke="transparent" data-fill-palette-color="primary"></path></svg></g><defs></defs></svg><rect width="395.52" height="247.2" fill="none" stroke="none" visibility="hidden"></rect></g></svg></g></svg>